<svg xmlns="http://www.w3.org/2000/svg" xmlns:xlink="http://www.w3.org/1999/xlink" viewBox="0 0 999.5 842"><defs><style>.cls-1{fill:url(#linear-gradient);}</style><linearGradient id="linear-gradient" y1="421" x2="999.5" y2="421" gradientUnits="userSpaceOnUse"><stop offset="0" stop-color="#fcee21"/><stop offset="0.41" stop-color="#d4145a"/><stop offset="1" stop-color="#f15a24"/></linearGradient></defs><title>Asset 2</title><g id="Layer_2" data-name="Layer 2"><g id="Layer_1-2" data-name="Layer 1"><path class="cls-1" d="M999.5,0c0,20.05-46.82,20.05-46.82,40.09s46.82,20,46.82,40.09-46.82,20-46.82,40.09,46.82,20,46.82,40.09-46.82,20-46.82,40.09,46.82,20.05,46.82,40.1-46.82,20-46.82,40.09,46.82,20.05,46.82,40.1-46.82,20-46.82,40.09,46.82,20.05,46.82,40.09S952.68,421,952.68,441s46.82,20.05,46.82,40.1-46.82,20-46.82,40.09,46.82,20,46.82,40.1-46.82,20.05-46.82,40.09,46.82,20.05,46.82,40.1-46.82,20-46.82,40.1,46.82,20,46.82,40.09-46.82,20-46.82,40.1,46.82,20.05,46.82,40.11S952.68,822,952.68,842H0V2.5Z"/></g></g></svg>